<svg width="82" height="215" viewBox="0 0 82 215" fill="none" xmlns="http://www.w3.org/2000/svg">
<path fill-rule="evenodd" clip-rule="evenodd" d="M82 215V0H81.9494C81.8298 8.77349 81.4268 14.2195 80.0696 18.4089C77.4987 26.3451 77.4368 26.4527 71.8674 32.6636C67.6857 37.327 52.1823 46.3384 21.1754 64.3612L21.1754 64.3612C9.0692 71.398 0 81.8857 0 97.5163C0 110.385 6.14746 119.206 15.076 125.23C51.2764 149.655 69.3766 161.868 73.077 166.406C75.8694 169.831 77.0386 171.116 77.829 172.603C78.6193 174.089 79.0308 175.777 80.3078 180.008C82 185.613 82 192.615 82 206.619L82 215Z" fill="#272727"/>
</svg>
